<svg id="Layer_1" data-name="Layer 1" xmlns="http://www.w3.org/2000/svg" width="25" height="25" viewBox="0 0 25 25">
  <title>instagram</title>
  <path d="M24.92,7.35a9.2,9.2,0,0,0-.58-3A6,6,0,0,0,22.9,2.1,6,6,0,0,0,20.69.66a9.2,9.2,0,0,0-3-.58C16.32,0,15.89,0,12.5,0S8.68,0,7.35.08a9.2,9.2,0,0,0-3,.58A6,6,0,0,0,2.1,2.1,6,6,0,0,0,.66,4.31a9.2,9.2,0,0,0-.58,3C0,8.68,0,9.11,0,12.5s0,3.82.08,5.15a9.2,9.2,0,0,0,.58,3A6,6,0,0,0,2.1,22.9a6,6,0,0,0,2.21,1.44,9.2,9.2,0,0,0,3,.58C8.68,25,9.11,25,12.5,25s3.82,0,5.15-.08a9.2,9.2,0,0,0,3-.58,6.39,6.39,0,0,0,3.65-3.65,9.2,9.2,0,0,0,.58-3c.07-1.33.08-1.76.08-5.15S25,8.68,24.92,7.35Zm-2.25,10.2a6.55,6.55,0,0,1-.43,2.32,4.07,4.07,0,0,1-2.37,2.37,6.55,6.55,0,0,1-2.32.43c-1.32.06-1.71.08-5.05.08s-3.73,0-5-.08a6.55,6.55,0,0,1-2.32-.43,3.73,3.73,0,0,1-1.44-.93,3.73,3.73,0,0,1-.93-1.44,6.55,6.55,0,0,1-.43-2.32c-.06-1.32-.08-1.71-.08-5.05s0-3.73.08-5a6.55,6.55,0,0,1,.43-2.32,3.73,3.73,0,0,1,.93-1.44,3.73,3.73,0,0,1,1.44-.93,6.55,6.55,0,0,1,2.32-.43c1.32-.07,1.71-.08,5.05-.08s3.73,0,5.05.08a6.55,6.55,0,0,1,2.32.43,3.73,3.73,0,0,1,1.44.93,3.73,3.73,0,0,1,.93,1.44,6.55,6.55,0,0,1,.43,2.32c.06,1.32.08,1.71.08,5.05S22.73,16.23,22.67,17.55ZM12.5,6.08a6.42,6.42,0,1,0,6.42,6.42A6.41,6.41,0,0,0,12.5,6.08Zm0,10.59a4.17,4.17,0,1,1,4.17-4.17A4.17,4.17,0,0,1,12.5,16.67ZM19.17,4.33a1.5,1.5,0,1,0,1.5,1.5A1.5,1.5,0,0,0,19.17,4.33Z"/>
</svg>
