<svg id="Layer_1" data-name="Layer 1" xmlns="http://www.w3.org/2000/svg" width="1.39in" height="1.67in" viewBox="0 0 100.01 119.97">
  <title>logo</title>
  <path d="M11.19,109.39H16.6a6.22,6.22,0,0,1,2.87.5,5,5,0,0,1,2.79,4.68,4.89,4.89,0,0,1-2.19,4.28,7.32,7.32,0,0,1-4,.83h-4.9Zm1.07,9.43h3.45c1.44,0,3,0,4.18-1a4.07,4.07,0,0,0,1.27-3.2,4.67,4.67,0,0,0-.95-2.94,4.34,4.34,0,0,0-3.6-1.43H12.26Z"/>
  <polygon points="25.8 109.39 36.15 109.39 36.15 110.25 26.86 110.25 26.86 113.85 35.44 113.85 35.44 114.71 26.86 114.71 26.86 118.83 36.59 118.83 36.59 119.68 25.8 119.68 25.8 109.39"/>
  <path d="M40.76,116.69a3.49,3.49,0,0,0,2.92,2.19,9.06,9.06,0,0,0,1.8.16c2.52,0,4.24-.94,4.24-2.36s-1.37-1.6-3.69-1.89l-2-.25a8.35,8.35,0,0,1-2.2-.5,2.08,2.08,0,0,1-1.35-1.94c0-1.54,1.58-3,5-3a6.36,6.36,0,0,1,5.09,2l-1,.51c-.34-.42-1.3-1.65-4.18-1.65-2.3,0-3.8.85-3.8,2.06,0,.87.87,1.19,1.55,1.33.52.1,3.11.42,3.7.51a10.83,10.83,0,0,1,2.42.54,2.33,2.33,0,0,1,1.59,2.18,2.77,2.77,0,0,1-.47,1.49c-.52.76-1.79,1.84-4.79,1.84a8.05,8.05,0,0,1-3.8-.69,4.23,4.23,0,0,1-2.14-2.16Z"/>
  <rect x="55.29" y="109.39" width="1.02" height="10.29"/>
  <path d="M71.66,117.57a3.74,3.74,0,0,1-1,1.18A6.37,6.37,0,0,1,66.78,120c-3.62,0-6.1-2.25-6.1-5.39s2.39-5.5,6.14-5.5a7.17,7.17,0,0,1,4,1.14,5.41,5.41,0,0,1,1.47,1.58l-1,.55a3.93,3.93,0,0,0-.92-1.15,5.56,5.56,0,0,0-3.65-1.2c-3,0-5,2-5,4.54s2,4.52,5.09,4.52a5.31,5.31,0,0,0,3.5-1.23,3.53,3.53,0,0,0,1.29-2.65H65.9v-.88h6.69v5.38h-.93Z"/>
  <polygon points="88.67 109.39 88.67 119.68 87.71 119.68 78.45 110.7 78.45 119.68 77.48 119.68 77.48 109.39 78.45 109.39 87.71 118.42 87.71 109.39 88.67 109.39"/>
  <path d="M100,100H94.49l-.37-.06c-.82-.2-2-.74-3.44-4.26-2.5-6-8.76-21.9-9.7-24-.39-.9-.62-1.25-1-1.25s-.62.43-1.09,1.56L69.1,96.51c-.74,1.84-1.46,3.12-3,3.45H66c-.83-.2-2-.74-3.45-4.26-2.5-6-8.75-21.9-9.69-24-.39-.9-.63-1.25-1-1.25s-.63.43-1.1,1.56L40.94,96.51c-.72,1.81-1.42,3.07-2.95,3.43a10.1,10.1,0,0,1-1.31-.42c-2.12-.82-3.87-2.58-5.6-4.22-1.52-1.45-9.18-9.7-10.59-11.54,1.33-1.41,7.23-7.27,8.44-8.44a12.37,12.37,0,0,1,4.23-2.94A7.74,7.74,0,0,1,35.42,72c.4,0,.59-.07.59-.35s-.27-.35-.66-.35c-1.22,0-3.37.12-4.58.12-1.05,0-3.2-.12-4-.12-.43,0-.62.08-.62.35s.16.31.51.39.54.35.54.78c0,.67-.86,1.65-2,2.94s-6.84,7.15-8.17,8.6h-.2V82.59c0-6,0-7,.08-8.29s.39-2,1.45-2.23A5.66,5.66,0,0,1,19.47,72c.31,0,.55-.07.55-.35s-.27-.35-.82-.35c-1.33,0-3.79.12-4.73.12s-3.4-.12-5.48-.12c-.58,0-.86.08-.86.35s.24.35.67.35a7.77,7.77,0,0,1,1.52.12c1.29.27,1.61.9,1.68,2.23s.08,2.34.08,8.29v6.88c0,3.6,0,6.69-.19,8.33-.16,1.13-.36,2-1.14,2.15l-.32.06H0V0H100ZM17.48,86.5l-.43-.59h-.2v3.56c0,3.6,0,6.69.12,8.37.08,1.09.43,2,1.41,2.11l.51.06H30.12a13.33,13.33,0,0,1-2.4-1.82C26,96.66,18.3,87.63,17.48,86.5m33.59-7.74c0-.16-.08-.36-.2-.36s-.19.2-.23.36L47,88.38c0,.15,0,.27.16.27h7.19c.2,0,.24-.12.2-.24Zm7.58,20.41-3.12-8.29a.39.39,0,0,0-.4-.28H46.42c-.2,0-.28.08-.36.32L44,96.51a7.63,7.63,0,0,0-.59,2.38,1,1,0,0,0,.81,1.12H58.42a.63.63,0,0,0,.23-.84m28.16,0-3.13-8.29a.38.38,0,0,0-.39-.28H74.57c-.2,0-.28.08-.35.32l-2.11,5.59a7.63,7.63,0,0,0-.59,2.38,1,1,0,0,0,.8,1.12H86.58a.65.65,0,0,0,.23-.84M79.22,78.76c0-.16-.08-.36-.19-.36s-.2.2-.24.36L75.2,88.38c0,.15,0,.27.15.27h7.2c.19,0,.23-.12.19-.24Z"/>
</svg>
