<svg id="Layer_1" data-name="Layer 1" xmlns="http://www.w3.org/2000/svg" width="21" height="25" viewBox="0 0 21 25">
  <title>pinterest</title>
  <path d="M4.51,24.4a13.85,13.85,0,0,1,.06-4.49c.29-1.22,1.92-7.77,1.92-7.77A5.45,5.45,0,0,1,6,9.82C6,7.64,7.33,6,9,6a2,2,0,0,1,2.08,2.2c0,1.35-.9,3.35-1.37,5.21a2.31,2.31,0,0,0,2.44,2.82c2.92,0,5.17-2.93,5.17-7.16,0-3.74-2.83-6.36-6.87-6.36C5.75,2.73,3,6.07,3,9.52a5.91,5.91,0,0,0,1.22,3.57.46.46,0,0,1,.11.45c-.12.49-.4,1.55-.45,1.77s-.24.35-.55.21C1.28,14.61,0,11.75,0,9.46,0,4.53,3.77,0,10.86,0,16.57,0,21,3.86,21,9c0,5.39-3.57,9.72-8.53,9.72A4.48,4.48,0,0,1,8.7,17l-1,3.71a17.27,17.27,0,0,1-2,4.1A.63.63,0,0,1,4.51,24.4Z"/>
</svg>
