<svg id="Layer_1" data-name="Layer 1" xmlns="http://www.w3.org/2000/svg" width="20.74" height="16.85" viewBox="0 0 20.74 16.85">
  <title>twitter</title>
  <path d="M20.74,2h0M14.36,0A4.25,4.25,0,0,0,10.1,4.25a4.37,4.37,0,0,0,.11,1A12.08,12.08,0,0,1,1.44.78,4.3,4.3,0,0,0,.87,2.92,4.26,4.26,0,0,0,2.76,6.46,4.35,4.35,0,0,1,.83,5.93V6a4.26,4.26,0,0,0,3.42,4.17,4.21,4.21,0,0,1-1.93.07,4.29,4.29,0,0,0,4,3A8.55,8.55,0,0,1,1,15a8.43,8.43,0,0,1-1-.06,12,12,0,0,0,6.52,1.91,12,12,0,0,0,12.1-12.1c0-.19,0-.37,0-.55A8.61,8.61,0,0,0,20.74,2a8.47,8.47,0,0,1-2.45.67A4.25,4.25,0,0,0,20.16.31a8.4,8.4,0,0,1-2.7,1A4.26,4.26,0,0,0,14.36,0"/>
</svg>
