<?xml version="1.0" encoding="UTF-8" standalone="no"?>
<!-- Created with Inkscape (http://www.inkscape.org/) -->

<svg
   xmlns:dc="http://purl.org/dc/elements/1.1/"
   xmlns:cc="http://creativecommons.org/ns#"
   xmlns:rdf="http://www.w3.org/1999/02/22-rdf-syntax-ns#"
   xmlns:svg="http://www.w3.org/2000/svg"
   xmlns="http://www.w3.org/2000/svg"
   xmlns:sodipodi="http://sodipodi.sourceforge.net/DTD/sodipodi-0.dtd"
   xmlns:inkscape="http://www.inkscape.org/namespaces/inkscape"
   width="210mm"
   height="297mm"
   viewBox="0 0 210 297"
   version="1.1"
   id="svg3820"
   inkscape:version="0.92.2 5c3e80d, 2017-08-06"
   sodipodi:docname="share.svg">
  <defs
     id="defs3814" />
  <sodipodi:namedview
     id="base"
     pagecolor="#ffffff"
     bordercolor="#666666"
     borderopacity="1.0"
     inkscape:pageopacity="0.0"
     inkscape:pageshadow="2"
     inkscape:zoom="0.35"
     inkscape:cx="400"
     inkscape:cy="560"
     inkscape:document-units="mm"
     inkscape:current-layer="layer1"
     showgrid="false"
     inkscape:window-width="947"
     inkscape:window-height="1162"
     inkscape:window-x="965"
     inkscape:window-y="6"
     inkscape:window-maximized="0" />
  <metadata
     id="metadata3817">
    <rdf:RDF>
      <cc:Work
         rdf:about="">
        <dc:format>image/svg+xml</dc:format>
        <dc:type
           rdf:resource="http://purl.org/dc/dcmitype/StillImage" />
        <dc:title></dc:title>
      </cc:Work>
    </rdf:RDF>
  </metadata>
  <g
     inkscape:label="Layer 1"
     inkscape:groupmode="layer"
     id="layer1">
    <g
       id="g3779"
       transform="matrix(0.26458333,0,0,0.26458333,100.61417,179.12612)">
      <path
         style="fill:#fcfefd;stroke-width:1.33333337"
         d="M 0,34 V 0 H 34 68 V 34 68 H 34 0 Z"
         id="path3795"
         inkscape:connector-curvature="0" />
      <path
         style="fill:#d9f1e4;stroke-width:1.33333337"
         d="m 51.333333,66.460357 c -3.871253,-2.117412 -6,-5.204738 -6,-8.701816 0,-2.528149 -2.136986,-4.138372 -12.19841,-9.191522 l -12.198411,-6.12641 -5.052356,2.278296 C 9.4478083,47.621293 4.6545451,46.466657 2.0242515,41.380231 -1.8920588,33.806921 0.97305919,23.477185 7.4401512,21.854049 c 2.0480335,-0.514024 5.3931588,0.05131 8.4440048,1.427046 l 5.052356,2.278296 12.198411,-6.12641 c 8.973449,-4.506737 12.19841,-6.799043 12.19841,-8.670645 0,-4.3355897 1.508779,-6.7845823 5.428695,-8.8116496 C 62.72534,-4.2357821 72.235783,5.2746603 66.049313,17.237972 63.07152,22.996388 56.517668,24.481463 51.033811,20.64042 48.338484,18.75254 47.271157,19.046236 35.403803,24.941333 25.513761,29.854203 22.666667,31.879059 22.666667,34 c 0,2.120941 2.847094,4.145797 12.737136,9.058667 11.867354,5.895097 12.934681,6.188793 15.630008,4.300913 5.483857,-3.841043 12.037709,-2.355968 15.015502,3.402448 4.513918,8.728955 0.67912,17.275976 -7.71598,17.197427 -2.383333,-0.02229 -5.533333,-0.696894 -7,-1.499098 z M 62.4,62.4 c 2.186869,-2.186869 2.013819,-7.063375 -0.319371,-8.999751 -1.055654,-0.876114 -3.605654,-1.399581 -5.666666,-1.16326 C 49.579973,53.020597 50.963836,64 57.896593,64 59.493467,64 61.52,63.28 62.4,62.4 Z M 13.890951,39.190681 C 15.237483,38.673969 16,36.754909 16,33.882751 16,30.126277 15.416053,29.237577 12.460298,28.495731 8.1178808,27.405853 4.8108761,29.300136 4.2309815,33.20956 3.4386907,38.550875 8.0759491,41.422107 13.890951,39.190681 Z M 62.4,14.4 C 66.139996,10.660003 63.322303,4 58,4 56.46,4 54.48,4.72 53.6,5.6 51.888804,7.3111956 51.415772,13.637995 52.888889,15.111111 54.362005,16.584228 60.688804,16.111196 62.4,14.4 Z"
         id="path3793"
         inkscape:connector-curvature="0" />
      <path
         style="fill:#c8ebd9;stroke-width:1.33333337"
         d="M 50.179812,65.23656 C 48.247581,63.716668 46.657479,61.166668 46.646249,59.569893 46.614343,55.0328 45.475339,54.072661 32.281595,47.461011 20.713552,41.664032 19.704447,41.389136 16.984919,43.293968 9.7077092,48.391124 0,43.079168 0,34 0,24.920832 9.7077092,19.608876 16.984919,24.706032 19.704447,26.610864 20.713552,26.335968 32.281595,20.538989 45.475339,13.927339 46.614343,12.9672 46.646249,8.4301068 46.673807,4.5116685 52.722011,0 57.947393,0 c 8.789404,0 13.071632,10.468974 7.289167,17.820188 -3.070963,3.904096 -7.12134,4.450627 -14.149445,1.909231 -4.112476,-1.487091 -5.308802,-1.175883 -16.424687,4.272658 -17.583723,8.618804 -17.577825,11.379932 0.04275,20.016802 11.07387,5.427946 12.27034,5.738473 16.381933,4.251702 7.028105,-2.541396 11.078483,-1.994865 14.149445,1.909231 8.45672,10.750977 -4.30577,23.513468 -15.056748,15.056748 z m 12.589419,-2.467329 c 4.665952,-4.665952 4.710197,-5.06555 0.99835,-9.01663 -4.97211,-5.292569 -13.100914,-2.858213 -13.100914,3.923368 0,2.849482 4.78257,8.990698 7.001649,8.990698 0.661913,0 2.957325,-1.753847 5.100915,-3.897436 z M 15.238095,39.238095 c 4.472744,-4.472743 1.191838,-12.571428 -5.092886,-12.571428 -2.5231545,0 -8.8118757,5.233538 -8.8118757,7.333333 0,0.355511 1.3082014,2.150948 2.907114,3.989859 3.3077318,3.804225 7.9183517,4.327532 10.9976477,1.248236 z M 63.580732,14.434248 c 1.697264,-1.594497 3.085935,-3.440651 3.085935,-4.102564 0,-1.4589953 -7.382802,-8.9983507 -8.811502,-8.9983507 -2.286597,0 -7.188498,6.0034208 -7.188498,8.8038477 0,6.849882 7.52976,9.355358 12.914065,4.297067 z"
         id="path3791"
         inkscape:connector-curvature="0" />
      <path
         style="fill:#b4e4cb;stroke-width:1.33333337"
         d="m 50.707592,65.634584 c -1.606641,-1.300979 -3.328948,-4.450979 -3.827349,-7 C 46.048261,54.3795 44.926529,53.461411 33.181275,47.422569 l -12.792786,-6.57743 -4.895377,2.323009 C 10.022421,45.76416 6.52654,45.169255 2.6215613,40.977752 -2.4437601,35.540768 0.51289579,25.709648 7.9204293,23.358588 c 1.4956176,-0.474691 4.8379897,0.175568 7.5726827,1.473264 l 4.895377,2.323009 12.792786,-6.57743 C 44.926529,14.538589 46.048261,13.6205 46.880243,9.3654163 48.001968,3.6284691 52.277308,0 57.915293,0 c 9.165904,0 13.467571,11.405014 6.81198,18.060607 -3.823273,3.823272 -6.928205,4.0875 -13.152626,1.11928 -4.496168,-2.144074 -4.57037,-2.12521 -17.045236,4.333333 C 22.938239,29.514251 22,30.299532 22,34 c 0,3.700468 0.938239,4.485749 12.529411,10.48678 12.474866,6.458543 12.549068,6.477407 17.045236,4.333333 6.224421,-2.96822 9.329353,-2.703992 13.152626,1.11928 9.485454,9.485455 -3.598844,24.133474 -14.019681,15.695191 z m 12.443923,-2.483069 c 1.933333,-1.933334 3.515152,-4.360606 3.515152,-5.393939 0,-2.551712 -6.041526,-8.424243 -8.666667,-8.424243 -1.166667,0 -3.59394,1.472727 -5.39394,3.272727 -1.8,1.8 -3.272727,4.227273 -3.272727,5.39394 0,2.625141 5.872531,8.666667 8.424243,8.666667 1.033333,0 3.460605,-1.581819 5.393939,-3.515152 z M 15.39394,39.39394 c 1.8,-1.8 3.272727,-4.227273 3.272727,-5.39394 0,-3.145511 -6.420578,-9.046404 -8.8350098,-8.119899 -1.1273664,0.432611 -2.5316787,0.786566 -3.1206939,0.786566 -0.5890153,0 -2.1019672,1.57355 -3.3621154,3.49678 -1.9764178,3.016394 -2.046539,3.953894 -0.51042,6.824158 1.5757449,2.944307 5.1057736,5.346214 8.2221781,5.594547 0.583333,0.04648 2.533334,-1.388212 4.333334,-3.188212 z m 48,-24 c 1.8,-1.8 3.272727,-4.118182 3.272727,-5.151516 0,-2.4353904 -6.4737,-8.9090907 -8.909091,-8.9090907 -2.551712,0 -8.424243,6.0415248 -8.424243,8.6666667 0,2.744998 5.92167,8.666667 8.666667,8.666667 1.166667,0 3.59394,-1.472727 5.39394,-3.272727 z"
         id="path3789"
         inkscape:connector-curvature="0" />
      <path
         style="fill:#abe0c5;stroke-width:1.33333337"
         d="M 50.718607,65.081919 C 49.223373,63.476973 48,61.037528 48,59.660929 48,54.843959 45.154963,51.943699 35.816459,47.240903 21.866128,40.215629 20.849569,39.942388 16.690645,42.100064 8.6467741,46.273275 0,42.076947 0,34 0,25.923053 8.6467741,21.726725 16.690645,25.899936 20.849569,28.057612 21.866128,27.784371 35.816459,20.759097 45.154963,16.056301 48,13.156041 48,8.3390705 48,4.2077459 52.954755,0 57.819521,0 66.71594,0 71.475244,11.325104 65.081919,17.281393 61.755487,20.380435 57.500512,20.7152 51.056145,18.384887 46.886671,16.877185 45.757124,17.183321 34.071449,22.988168 15.368697,32.278743 15.443647,35.922135 34.529831,45.270581 45.774983,50.778477 46.972324,51.091843 51.087115,49.603915 60.844633,46.075551 68,49.551343 68,57.819521 68,66.71594 56.674896,71.475244 50.718607,65.081919 Z m 10.671824,0.220857 c 9.059376,-4.848431 3.962949,-17.709493 -6.239139,-15.744751 -3.386111,0.652106 -6.399181,6.611351 -5.385291,10.651015 0.463487,1.846676 2.205744,4.014491 3.871684,4.817368 3.916907,1.887701 4.690418,1.915276 7.752746,0.276368 z M 16,40 c 1.466667,-1.466667 2.666667,-4.053529 2.666667,-5.748585 0,-4.100226 -4.657812,-8.918082 -8.621834,-8.918082 -3.1970719,0 -8.7114997,5.486048 -8.7114997,8.666667 0,0.902207 1.2435482,3.221292 2.7634402,5.153521 C 7.4177244,43.375427 12.27888,43.72112 16,40 Z M 63.150751,16.658773 C 67.767025,12.042499 66.902003,5.6469279 61.252412,2.6233589 56.375176,0.01314104 49.333333,4.252282 49.333333,9.7985631 c 0,7.3957059 8.875383,11.8022449 13.817418,6.8602099 z"
         id="path3787"
         inkscape:connector-curvature="0" />
      <path
         style="fill:#92d8b4;stroke-width:1.33333337"
         d="m 52.87304,67 c -0.339719,-0.55 2.062093,-1.058415 5.33736,-1.129811 3.63754,-0.07929 5.274232,0.301928 4.205648,0.979584 C 60.227359,68.237759 53.701027,68.340497 52.87304,67 Z M 65.870189,58.2104 C 65.941589,54.935133 66.45,52.533321 67,52.87304 c 1.340497,0.827987 1.237759,7.354319 -0.150227,9.543008 C 66.172117,63.484632 65.790897,61.84794 65.870189,58.2104 Z M 46.666667,53.333333 C 46.666667,52.6 47.602077,52 48.745356,52 49.888635,52 50.453225,52.6 50,53.333333 c -0.453225,0.733334 -1.388635,1.333334 -2.078689,1.333334 -0.690055,0 -1.254644,-0.6 -1.254644,-1.333334 z M 0.88888889,39.111111 c -1.27562594,-1.275626 -1.09850488,-9.49085 0.22222221,-10.307103 0.6111112,-0.377688 1.1111112,1.986901 1.1111112,5.254644 0,6.385921 2.68e-5,6.385819 -1.33333341,5.052459 z M 18.18156,38.007659 C 18.602053,36.911871 19.483221,36.34728 20.139713,36.753015 22.022277,37.916503 21.531699,40 19.37518,40 18.185735,40 17.717157,39.217871 18.18156,38.007659 Z m 0.0044,-6.932796 C 16.684395,29.573284 17.271453,28 19.333333,28 c 1.1,0 2,0.564589 2,1.254644 0,1.681304 -2.082118,2.88546 -3.14736,1.820219 z M 46.666667,14.666667 c 0,-0.733334 0.564589,-1.333334 1.254644,-1.333334 0.690054,0 1.625464,0.6 2.078689,1.333334 C 50.453225,15.4 49.88864,16 48.745356,16 47.602077,16 46.666667,15.4 46.666667,14.666667 Z M 65.870189,9.7896003 C 65.790897,6.1520607 66.172117,4.5153683 66.849773,5.5839515 68.237759,7.7726409 68.340497,14.298973 67,15.12696 66.45,15.466679 65.941585,13.064867 65.870189,9.7896003 Z M 52.87304,1 c 0.827987,-1.34049685 7.354319,-1.23775856 9.543008,0.1502272 C 63.484632,1.8278831 61.84794,2.2091027 58.2104,2.1298101 54.935133,2.0584145 52.533321,1.55 52.87304,1 Z"
         id="path3785"
         inkscape:connector-curvature="0" />
      <path
         style="fill:#4fc087;stroke-width:1.33333337"
         d="M 53.793989,66.979583 C 52.947349,66.440812 54.840055,66 58,66 c 3.159945,0 5.052651,0.440812 4.206011,0.979583 -0.846639,0.53877 -2.739344,0.979582 -4.206011,0.979582 -1.466667,0 -3.359372,-0.440812 -4.206011,-0.979582 z M 66,58 c 0,-3.159945 0.440812,-5.052651 0.979583,-4.206011 0.53877,0.846639 0.979582,2.739344 0.979582,4.206011 0,1.466667 -0.440812,3.359372 -0.979582,4.206011 C 66.440812,63.052651 66,61.159945 66,58 Z M 0.52621087,36.581743 C 0.05435053,34.701701 0.19291932,31.987732 0.83414149,30.550699 1.7129871,28.581132 2,29.422644 2,33.968956 2,40.886345 1.7277401,41.369017 0.52621087,36.581743 Z M 66,10 C 66,6.8400543 66.440812,4.9473491 66.979583,5.7939887 67.518353,6.6406283 67.959165,8.5333333 67.959165,10 c 0,1.466667 -0.440812,3.359372 -0.979582,4.206011 C 66.440812,15.052651 66,13.159946 66,10 Z M 53.793989,1.020417 c 1.97841,-1.2589882 6.433612,-1.2589882 8.412022,0 C 63.052651,1.5591876 61.159945,2 58,2 54.840055,2 52.947349,1.5591876 53.793989,1.020417 Z"
         id="path3783"
         inkscape:connector-curvature="0" />
      <path
         style="fill:#1bae62;stroke-width:1.33333337"
         d="m 55.666667,67.116959 c 0.916666,-0.369883 2.416666,-0.369883 3.333333,0 0.916667,0.369884 0.166667,0.672514 -1.666667,0.672514 -1.833333,0 -2.583333,-0.30263 -1.666666,-0.672514 z m 11.210526,-9.783626 c 0,-1.833333 0.302631,-2.583333 0.672515,-1.666666 0.369883,0.916666 0.369883,2.416666 0,3.333333 -0.369884,0.916667 -0.672515,0.166667 -0.672515,-1.666667 z M 0.10526316,33.888889 c 0.0639786,-1.553257 0.3799204,-1.8692 0.80555556,-0.805556 0.38516078,0.9625 0.33779238,2.1125 -0.1052632,2.555556 -0.44305556,0.443055 -0.75818713,-0.344445 -0.70029236,-1.75 z M 66.877193,10.666667 c 0,-1.8333337 0.302631,-2.5833337 0.672515,-1.666667 0.369883,0.9166667 0.369883,2.416667 0,3.333333 C 67.179824,13.25 66.877193,12.5 66.877193,10.666667 Z M 55.666667,0.4502924 C 56.583333,0.08040936 58.083333,0.08040936 59,0.4502924 59.916667,0.82017544 59.166667,1.122807 57.333333,1.122807 55.5,1.122807 54.75,0.82017544 55.666667,0.4502924 Z"
         id="path3781"
         inkscape:connector-curvature="0" />
    </g>
  </g>
</svg>
